<svg width="31" height="30" viewBox="0 0 31 30" fill="none" xmlns="http://www.w3.org/2000/svg">
<g clip-path="url(#clip0_461_2105)">
<path d="M15.4231 16.25C18.4181 16.25 21.1418 17.1175 23.1456 18.3387C24.1456 18.9513 25.0006 19.67 25.6181 20.4513C26.2256 21.2213 26.6731 22.1413 26.6731 23.125C26.6731 24.1812 26.1593 25.0138 25.4193 25.6075C24.7193 26.17 23.7956 26.5425 22.8143 26.8025C20.8418 27.3237 18.2093 27.5 15.4231 27.5C12.6368 27.5 10.0043 27.325 8.03185 26.8025C7.0506 26.5425 6.12685 26.17 5.42685 25.6075C4.6856 25.0125 4.1731 24.1812 4.1731 23.125C4.1731 22.1413 4.6206 21.2213 5.2281 20.4513C5.8456 19.67 6.69935 18.9513 7.7006 18.3387C9.70435 17.1175 12.4293 16.25 15.4231 16.25ZM15.4231 2.5C17.0807 2.5 18.6704 3.15848 19.8425 4.33058C21.0146 5.50269 21.6731 7.0924 21.6731 8.75C21.6731 10.4076 21.0146 11.9973 19.8425 13.1694C18.6704 14.3415 17.0807 15 15.4231 15C13.7655 15 12.1758 14.3415 11.0037 13.1694C9.83158 11.9973 9.1731 10.4076 9.1731 8.75C9.1731 7.0924 9.83158 5.50269 11.0037 4.33058C12.1758 3.15848 13.7655 2.5 15.4231 2.5Z" fill="black"/>
</g>
<defs>
<clipPath id="clip0_461_2105">
<rect width="30" height="30" fill="white" transform="translate(0.423096)"/>
</clipPath>
</defs>
</svg>
